P3
3 3
255
0
0
0
255
255
255
0
0
0
255
255
255
0
0
0
246
246
246
4
4
4
241
241
241
6
6
6
