P3
3 3
255
245
0
0
0
245
0
0
0
245
245
0
245
245
245
0
0
245
245
0
0
0
115
115
115
245
245
245
